<?xml version="1.0" encoding="UTF-8" standalone="no"?>
<!DOCTYPE svg PUBLIC "-//W3C//DTD SVG 1.1//EN" "http://www.w3.org/Graphics/SVG/1.1/DTD/svg11.dtd">
<svg width="100%" height="100%" viewBox="0 0 500 500" version="1.1" xmlns="http://www.w3.org/2000/svg" xmlns:xlink="http://www.w3.org/1999/xlink" xml:space="preserve" xmlns:serif="http://www.serif.com/" style="fill-rule:evenodd;clip-rule:evenodd;stroke-linejoin:round;stroke-miterlimit:2;">
    <g transform="matrix(0.942701,0,0,0.942701,16.3283,-6.223)">
        <g transform="matrix(5.68864,0,0,5.68864,-60.5307,-1049.71)">
            <g transform="matrix(57.0993,0,0,57.0993,39.9679,264.438)">
                <path d="M0.328,-0.35L0.25,-0.473L0.171,-0.351L0.092,-0.398L0.158,-0.525L0.016,-0.532L0.016,-0.623L0.158,-0.632L0.091,-0.76L0.171,-0.807L0.25,-0.684L0.327,-0.807L0.408,-0.76L0.342,-0.631L0.483,-0.623L0.483,-0.533L0.342,-0.525L0.408,-0.398L0.328,-0.35Z" style="fill-rule:nonzero;"/>
            </g>
        </g>
        <g transform="matrix(4.19613,3.84098,-3.84098,4.19613,1075.84,-910.876)">
            <g transform="matrix(57.0993,0,0,57.0993,39.9679,264.438)">
                <path d="M0.328,-0.35L0.25,-0.473L0.171,-0.351L0.092,-0.398L0.158,-0.525L0.016,-0.532L0.016,-0.623L0.158,-0.632L0.091,-0.76L0.171,-0.807L0.25,-0.684L0.327,-0.807L0.408,-0.76L0.342,-0.631L0.483,-0.623L0.483,-0.533L0.342,-0.525L0.408,-0.398L0.328,-0.35Z" style="fill-rule:nonzero;"/>
            </g>
        </g>
        <g transform="matrix(4.19613,3.84098,-3.84098,4.19613,742.575,-904.021)">
            <g transform="matrix(57.0993,0,0,57.0993,39.9679,264.438)">
                <path d="M0.328,-0.35L0.25,-0.473L0.171,-0.351L0.092,-0.398L0.158,-0.525L0.016,-0.532L0.016,-0.623L0.158,-0.632L0.091,-0.76L0.171,-0.807L0.25,-0.684L0.327,-0.807L0.408,-0.76L0.342,-0.631L0.483,-0.623L0.483,-0.533L0.342,-0.525L0.408,-0.398L0.328,-0.35Z" style="fill-rule:nonzero;"/>
            </g>
        </g>
    </g>
    <g transform="matrix(1,0,0,1,1.86285,-9.24993)">
        <path d="M495.325,142.227L495.325,376.273L0.949,376.273L0.949,142.227L495.325,142.227ZM489.325,148.227C489.325,148.227 62.774,148.227 6.949,148.227L6.949,370.273C6.949,370.273 489.325,370.273 489.325,370.273L489.325,148.227Z"/>
    </g>
</svg>
