<?xml version="1.0" encoding="UTF-8"?>
<svg version="1.1" xmlns="http://www.w3.org/2000/svg" width="1080" height="1080">
<path d="M0 0 C356.4 0 712.8 0 1080 0 C1080 356.4 1080 712.8 1080 1080 C723.6 1080 367.2 1080 0 1080 C0 723.6 0 367.2 0 0 Z " fill="#FEFEFE" transform="translate(0,0)"/>
<path d="M0 0 C9.97974813 5.38255129 17.88078991 13.96656365 21.37109375 24.83203125 C25.20472878 43.68449529 19.27506144 60.43315638 9.03515625 76.09765625 C6.84746174 79.24033545 4.52648793 82.19110262 2.03515625 85.09765625 C1.37 85.88398438 0.70484375 86.6703125 0.01953125 87.48046875 C-15.32435686 105.08730439 -34.61237372 118.83389032 -52.96484375 133.09765625 C-52.24756104 132.96190186 -51.53027832 132.82614746 -50.79125977 132.6862793 C-37.84797601 130.25600679 -24.91760198 127.92986786 -11.83984375 126.34765625 C-10.90857666 126.23252686 -9.97730957 126.11739746 -9.01782227 125.9987793 C5.99711618 124.27335903 21.12018448 123.85916505 36.22265625 123.84765625 C37.03709198 123.84698151 37.85152771 123.84630676 38.69064331 123.84561157 C91.39041281 123.91400386 144.09112862 135.1790221 192.03515625 157.09765625 C192.84919922 157.46358887 193.66324219 157.82952148 194.50195312 158.20654297 C218.44535764 168.99250383 241.18735212 183.0034871 261.42871094 199.76757812 C262.49457552 200.65007512 263.56552674 201.52646643 264.64160156 202.39648438 C272.83041354 209.02058665 280.37760927 216.23918114 287.84765625 223.66015625 C288.71914307 224.52237793 289.59062988 225.38459961 290.48852539 226.27294922 C296.42479936 232.23802634 301.8171081 238.49864771 307.03515625 245.09765625 C307.52330811 245.70617432 308.01145996 246.31469238 308.5144043 246.94165039 C364.12963834 316.55684653 376.16298682 406.41024992 366.62841797 492.78222656 C363.44468707 520.38866396 359.27120727 548.00762578 353.03515625 575.09765625 C352.62789307 576.86834473 352.62789307 576.86834473 352.21240234 578.67480469 C347.20114475 600.15320414 340.99842116 621.17443281 334.03515625 642.09765625 C333.62007812 643.34562988 333.205 644.59360352 332.77734375 645.87939453 C320.78737911 681.49635805 305.18243002 717.27495949 285.03515625 749.09765625 C284.38087646 750.14083008 284.38087646 750.14083008 283.71337891 751.20507812 C277.49844399 761.08376235 270.97671906 770.71543995 264.03515625 780.09765625 C263.64005859 780.63310059 263.24496094 781.16854492 262.83789062 781.72021484 C246.70939035 803.45145519 228.02084171 824.20506625 206.03515625 840.09765625 C204.62943359 841.16113281 204.62943359 841.16113281 203.1953125 842.24609375 C196.42038246 847.32000118 189.36090356 851.86215006 182.03515625 856.09765625 C181.40899414 856.46004395 180.78283203 856.82243164 180.13769531 857.19580078 C130.65568073 885.44495288 72.76172438 886.29159708 18.59033203 872.20166016 C10.67772666 870.02555525 2.84382227 867.61941058 -4.96484375 865.09765625 C-5.88523437 864.80101074 -6.805625 864.50436523 -7.75390625 864.19873047 C-45.94498808 851.72250206 -83.34260894 832.97447534 -116.96484375 811.09765625 C-117.9384082 810.46424316 -118.91197266 809.83083008 -119.91503906 809.17822266 C-141.84035907 794.84728449 -162.98203064 779.73256505 -182.890625 762.703125 C-185.6618353 760.33901438 -188.49411564 758.05921667 -191.33984375 755.78515625 C-197.91445068 750.43551247 -204.01315338 744.5932087 -210.171875 738.77734375 C-212.71851409 736.39160343 -215.31135869 734.06017538 -217.90234375 731.72265625 C-222.81093065 727.23309506 -227.56477184 722.60482614 -232.27734375 717.91015625 C-232.93532959 717.2567627 -233.59331543 716.60336914 -234.27124023 715.93017578 C-238.11435354 712.07492071 -241.76263818 708.10468741 -245.3190918 703.98413086 C-247.25557927 701.76439511 -249.26371325 699.62334721 -251.2878418 697.48388672 C-257.5294541 690.87386446 -263.15980467 683.91693776 -268.70068359 676.71728516 C-270.57044409 674.32176736 -272.51853786 671.99364911 -274.46484375 669.66015625 C-313.17732506 622.45148436 -343.1466248 565.4372955 -353.96484375 505.09765625 C-354.15030762 504.10080811 -354.33577148 503.10395996 -354.52685547 502.0769043 C-356.33094119 491.21457018 -356.3603645 480.39639578 -356.33984375 469.41015625 C-356.3399646 468.41654083 -356.34008545 467.42292542 -356.34020996 466.39920044 C-356.31404619 451.26787174 -355.47931673 436.73356132 -352.51171875 421.85546875 C-351.98976935 419.22335248 -351.53096042 416.58810629 -351.08984375 413.94140625 C-342.28192999 363.18079874 -316.63326555 313.54562758 -283.96484375 274.09765625 C-283.51689453 273.55351074 -283.06894531 273.00936523 -282.60742188 272.44873047 C-273.49556519 261.41433665 -263.86987319 250.92682053 -253.77734375 240.78515625 C-253.12419189 240.12733154 -252.47104004 239.46950684 -251.7980957 238.79174805 C-247.35035408 234.35856898 -242.73103596 230.18464593 -237.96484375 226.09765625 C-236.94395647 225.20839526 -235.92311879 224.31907733 -234.90234375 223.4296875 C-217.32996216 208.35763148 -198.27005487 194.26125058 -177.96484375 183.09765625 C-179.46700764 178.71429275 -181.81893729 175.18427124 -184.52734375 171.47265625 C-184.97062012 170.86091553 -185.41389648 170.2491748 -185.87060547 169.61889648 C-196.65390004 154.86432451 -206.68962777 145.82597421 -222.71777344 137.296875 C-224.70736136 136.23506971 -226.68579125 135.15616022 -228.66015625 134.06640625 C-234.30325911 130.9860548 -239.98180422 128.06883597 -245.80078125 125.33203125 C-246.82792236 124.84855225 -247.85506348 124.36507324 -248.91333008 123.86694336 C-250.94553084 122.91624623 -252.98168675 121.97394518 -255.0222168 121.04125977 C-261.43289362 118.05180508 -266.6843152 115.26097005 -270.90234375 109.41015625 C-272.41237712 104.70240516 -272.42766489 100.83545011 -270.96484375 96.09765625 C-268.23974537 91.94544899 -265.11702775 87.78516963 -260.06640625 86.68359375 C-249.37606755 85.77306017 -240.24817935 91.50851761 -230.96484375 96.09765625 C-228.95466395 97.07080194 -226.94424177 98.04344708 -224.93359375 99.015625 C-200.48705012 110.94195166 -178.80027247 123.17005491 -162.7421875 145.76171875 C-161.17673682 148.17546522 -161.17673682 148.17546522 -158.96484375 149.09765625 C-158.69837036 148.50963226 -158.43189697 147.92160828 -158.15734863 147.31576538 C-156.9384892 145.04863569 -155.6503222 143.47205391 -153.88476562 141.60791016 C-152.94703308 140.61300064 -152.94703308 140.61300064 -151.99035645 139.59799194 C-151.31162476 138.88889679 -150.63289307 138.17980164 -149.93359375 137.44921875 C-149.22424683 136.70233795 -148.5148999 135.95545715 -147.78405762 135.1859436 C-140.52273352 127.57304388 -133.12058831 120.10146046 -125.67089844 112.67333984 C-123.4343538 110.44224053 -121.20332075 108.20572678 -118.97265625 105.96875 C-117.52245652 104.51920993 -116.07194724 103.06997946 -114.62109375 101.62109375 C-113.96886841 100.96684418 -113.31664307 100.3125946 -112.64465332 99.63851929 C-108.80048702 95.81363419 -104.84651608 92.17268983 -100.73292542 88.63868713 C-94.18098326 82.92812217 -88.19858918 76.520533 -82.56640625 69.9140625 C-80.97894114 68.11364475 -79.31596781 66.45216648 -77.58984375 64.78515625 C-73.93186446 61.18382708 -70.77010841 57.25372874 -67.5546875 53.2578125 C-64.59240747 49.60663014 -61.49577232 46.07519635 -58.40234375 42.53515625 C-54.14286669 37.65237083 -50.00281876 32.70938884 -45.984375 27.625 C-17.8226372 -7.61802584 -17.8226372 -7.61802584 0 0 Z " fill="#FEB0B0" transform="translate(545.96484375,75.90234375)"/>
<path d="M0 0 C9.97974813 5.38255129 17.88078991 13.96656365 21.37109375 24.83203125 C25.20472878 43.68449529 19.27506144 60.43315638 9.03515625 76.09765625 C6.84746174 79.24033545 4.52648793 82.19110262 2.03515625 85.09765625 C1.37 85.88398438 0.70484375 86.6703125 0.01953125 87.48046875 C-8.96472821 97.7897449 -19.28078388 106.60777243 -29.96484375 115.09765625 C-30.50898926 115.53078125 -31.05313477 115.96390625 -31.61376953 116.41015625 C-34.56877249 118.75881229 -37.536621 121.08761071 -40.52734375 123.390625 C-42.68314392 125.05911461 -44.68742982 126.75147348 -46.71484375 128.5859375 C-53.69778577 134.62496439 -60.19799655 136.58549295 -69.05834961 138.6496582 C-78.21428738 140.79813721 -87.05799499 143.60552851 -95.96484375 146.59765625 C-96.65041351 146.82531677 -97.33598328 147.05297729 -98.04232788 147.28753662 C-106.23267041 150.00950951 -114.29886744 152.92942679 -122.27001953 156.24401855 C-126.76409743 158.09765625 -126.76409743 158.09765625 -128.96484375 158.09765625 C-129.34382812 159.35964844 -129.7228125 160.62164062 -130.11328125 161.921875 C-132.01138827 167.59078486 -134.71175257 172.68474785 -137.58984375 177.91015625 C-138.15541992 178.94495117 -138.72099609 179.97974609 -139.30371094 181.04589844 C-145.77743769 192.76009478 -152.77017749 204.15614053 -159.78417969 215.55078125 C-178.13082899 245.36638507 -196.26597806 275.32222193 -212.96484375 306.09765625 C-213.74649902 307.52319824 -213.74649902 307.52319824 -214.54394531 308.97753906 C-221.10188438 320.97028075 -226.93184993 333.20448667 -232.40234375 345.72265625 C-232.69593781 346.39420746 -232.98953186 347.06575867 -233.29202271 347.75765991 C-238.90680713 360.64826833 -244.02212433 373.5904692 -247.96484375 387.09765625 C-248.35542969 388.35191406 -248.74601562 389.60617187 -249.1484375 390.8984375 C-261.81738018 432.53845388 -261.16615522 473.85673111 -247.96484375 515.09765625 C-247.56289795 516.3810791 -247.56289795 516.3810791 -247.15283203 517.69042969 C-235.08443062 555.88809441 -213.91843312 590.87225176 -191.96484375 624.09765625 C-191.4754834 624.84192871 -190.98612305 625.58620117 -190.48193359 626.35302734 C-179.31353891 643.33427855 -167.70923931 660.0218358 -155.75805664 676.4609375 C-151.15010897 682.80868582 -146.65442854 689.23149276 -142.17504883 695.67041016 C-139.48990388 699.52193455 -136.79295559 703.35852283 -134 707.1328125 C-126.96117384 716.65009858 -120.32800084 726.41670193 -113.80245972 736.29049683 C-112.80562235 737.79848886 -111.80678354 739.3051603 -110.80569458 740.81033325 C-75.41603542 794.09337981 -75.41603542 794.09337981 -78.96484375 823.09765625 C-79.51270698 825.49308285 -80.19936741 827.75818839 -80.96484375 830.09765625 C-87.28997565 829.73173953 -91.88977567 826.50015192 -97.15234375 823.28515625 C-98.12413574 822.69984131 -99.09592773 822.11452637 -100.09716797 821.51147461 C-103.06076384 819.71916793 -106.01413518 817.91108645 -108.96484375 816.09765625 C-109.80901855 815.58170898 -110.65319336 815.06576172 -111.52294922 814.53417969 C-128.26934157 804.26686427 -144.37860501 793.05002472 -159.96484375 781.09765625 C-161.00640625 780.31132813 -162.04796875 779.525 -163.12109375 778.71484375 C-169.88209592 773.59281117 -176.41420252 768.25590153 -182.85546875 762.73828125 C-185.63699186 760.36047244 -188.48060725 758.06916174 -191.33984375 755.78515625 C-197.91445068 750.43551247 -204.01315338 744.5932087 -210.171875 738.77734375 C-212.71851409 736.39160343 -215.31135869 734.06017538 -217.90234375 731.72265625 C-222.81093065 727.23309506 -227.56477184 722.60482614 -232.27734375 717.91015625 C-232.93532959 717.2567627 -233.59331543 716.60336914 -234.27124023 715.93017578 C-238.11435354 712.07492071 -241.76263818 708.10468741 -245.3190918 703.98413086 C-247.25557927 701.76439511 -249.26371325 699.62334721 -251.2878418 697.48388672 C-257.5294541 690.87386446 -263.15980467 683.91693776 -268.70068359 676.71728516 C-270.57044409 674.32176736 -272.51853786 671.99364911 -274.46484375 669.66015625 C-313.17732506 622.45148436 -343.1466248 565.4372955 -353.96484375 505.09765625 C-354.15030762 504.10080811 -354.33577148 503.10395996 -354.52685547 502.0769043 C-356.33094119 491.21457018 -356.3603645 480.39639578 -356.33984375 469.41015625 C-356.3399646 468.41654083 -356.34008545 467.42292542 -356.34020996 466.39920044 C-356.31404619 451.26787174 -355.47931673 436.73356132 -352.51171875 421.85546875 C-351.98976935 419.22335248 -351.53096042 416.58810629 -351.08984375 413.94140625 C-342.28192999 363.18079874 -316.63326555 313.54562758 -283.96484375 274.09765625 C-283.51689453 273.55351074 -283.06894531 273.00936523 -282.60742188 272.44873047 C-273.49556519 261.41433665 -263.86987319 250.92682053 -253.77734375 240.78515625 C-253.12419189 240.12733154 -252.47104004 239.46950684 -251.7980957 238.79174805 C-247.35035408 234.35856898 -242.73103596 230.18464593 -237.96484375 226.09765625 C-236.94395647 225.20839526 -235.92311879 224.31907733 -234.90234375 223.4296875 C-217.32996216 208.35763148 -198.27005487 194.26125058 -177.96484375 183.09765625 C-179.46700764 178.71429275 -181.81893729 175.18427124 -184.52734375 171.47265625 C-184.97062012 170.86091553 -185.41389648 170.2491748 -185.87060547 169.61889648 C-196.65390004 154.86432451 -206.68962777 145.82597421 -222.71777344 137.296875 C-224.70736136 136.23506971 -226.68579125 135.15616022 -228.66015625 134.06640625 C-234.30325911 130.9860548 -239.98180422 128.06883597 -245.80078125 125.33203125 C-246.82792236 124.84855225 -247.85506348 124.36507324 -248.91333008 123.86694336 C-250.94553084 122.91624623 -252.98168675 121.97394518 -255.0222168 121.04125977 C-261.43289362 118.05180508 -266.6843152 115.26097005 -270.90234375 109.41015625 C-272.41237712 104.70240516 -272.42766489 100.83545011 -270.96484375 96.09765625 C-268.23974537 91.94544899 -265.11702775 87.78516963 -260.06640625 86.68359375 C-249.37606755 85.77306017 -240.24817935 91.50851761 -230.96484375 96.09765625 C-228.95466395 97.07080194 -226.94424177 98.04344708 -224.93359375 99.015625 C-200.48705012 110.94195166 -178.80027247 123.17005491 -162.7421875 145.76171875 C-161.17673682 148.17546522 -161.17673682 148.17546522 -158.96484375 149.09765625 C-158.69837036 148.50963226 -158.43189697 147.92160828 -158.15734863 147.31576538 C-156.9384892 145.04863569 -155.6503222 143.47205391 -153.88476562 141.60791016 C-152.94703308 140.61300064 -152.94703308 140.61300064 -151.99035645 139.59799194 C-151.31162476 138.88889679 -150.63289307 138.17980164 -149.93359375 137.44921875 C-149.22424683 136.70233795 -148.5148999 135.95545715 -147.78405762 135.1859436 C-140.52273352 127.57304388 -133.12058831 120.10146046 -125.67089844 112.67333984 C-123.4343538 110.44224053 -121.20332075 108.20572678 -118.97265625 105.96875 C-117.52245652 104.51920993 -116.07194724 103.06997946 -114.62109375 101.62109375 C-113.96886841 100.96684418 -113.31664307 100.3125946 -112.64465332 99.63851929 C-108.80048702 95.81363419 -104.84651608 92.17268983 -100.73292542 88.63868713 C-94.18098326 82.92812217 -88.19858918 76.520533 -82.56640625 69.9140625 C-80.97894114 68.11364475 -79.31596781 66.45216648 -77.58984375 64.78515625 C-73.93186446 61.18382708 -70.77010841 57.25372874 -67.5546875 53.2578125 C-64.59240747 49.60663014 -61.49577232 46.07519635 -58.40234375 42.53515625 C-54.14286669 37.65237083 -50.00281876 32.70938884 -45.984375 27.625 C-17.8226372 -7.61802584 -17.8226372 -7.61802584 0 0 Z " fill="#F99191" transform="translate(545.96484375,75.90234375)"/>
<path d="M0 0 C9.97974813 5.38255129 17.88078991 13.96656365 21.37109375 24.83203125 C25.20472878 43.68449529 19.27506144 60.43315638 9.03515625 76.09765625 C6.84746174 79.24033545 4.52648793 82.19110262 2.03515625 85.09765625 C1.37 85.88398438 0.70484375 86.6703125 0.01953125 87.48046875 C-8.96472821 97.7897449 -19.28078388 106.60777243 -29.96484375 115.09765625 C-30.50898926 115.53078125 -31.05313477 115.96390625 -31.61376953 116.41015625 C-34.56877249 118.75881229 -37.536621 121.08761071 -40.52734375 123.390625 C-42.68314392 125.05911461 -44.68742982 126.75147348 -46.71484375 128.5859375 C-53.7080721 134.63386027 -60.21530058 136.57867294 -69.08251953 138.66064453 C-77.97878616 140.7600792 -86.61291992 143.39327531 -95.27734375 146.28515625 C-95.9770932 146.51838593 -96.67684265 146.7516156 -97.39779663 146.99191284 C-112.11939013 151.93233381 -126.5397033 157.66557579 -140.5703125 164.33642578 C-141.37082031 164.7126709 -142.17132813 165.08891602 -142.99609375 165.4765625 C-143.69283203 165.81373291 -144.38957031 166.15090332 -145.10742188 166.49829102 C-146.96484375 167.09765625 -146.96484375 167.09765625 -149.96484375 166.09765625 C-151.61622934 163.83207111 -153.11897032 161.59977751 -154.58984375 159.22265625 C-154.9971875 158.58457031 -155.40453125 157.94648438 -155.82421875 157.2890625 C-157.52764658 154.58726803 -158.95126408 152.13839526 -159.96484375 149.09765625 C-158.91796875 147.4765625 -158.91796875 147.4765625 -157.21484375 145.66015625 C-155.0440324 143.34238422 -152.88956119 141.01399225 -150.76538086 138.65332031 C-142.99086222 130.03570723 -134.83772906 121.8177506 -126.62084961 113.62329102 C-124.26755075 111.27538569 -121.91968985 108.92213657 -119.57226562 106.56835938 C-118.05370617 105.05046028 -116.53483679 103.53287119 -115.015625 102.015625 C-114.32584061 101.32381638 -113.63605621 100.63200775 -112.92536926 99.91923523 C-108.98280807 95.99537289 -104.94023188 92.24791667 -100.71905518 88.62481689 C-94.16941327 82.92290708 -88.19359155 76.51467085 -82.56640625 69.9140625 C-80.97894114 68.11364475 -79.31596781 66.45216648 -77.58984375 64.78515625 C-73.93186446 61.18382708 -70.77010841 57.25372874 -67.5546875 53.2578125 C-64.59240747 49.60663014 -61.49577232 46.07519635 -58.40234375 42.53515625 C-54.14286669 37.65237083 -50.00281876 32.70938884 -45.984375 27.625 C-17.8226372 -7.61802584 -17.8226372 -7.61802584 0 0 Z " fill="#537853" transform="translate(545.96484375,75.90234375)"/>
<path d="M0 0 C5.73271123 2.39454841 8.91431633 5.5889654 12 11 C12.93090466 13.7095297 13.54418627 16.44694242 14.125 19.25 C14.28097656 19.94996094 14.43695312 20.64992188 14.59765625 21.37109375 C15.0838647 23.57711393 15.54172523 25.78802548 16 28 C16.1664502 28.74548096 16.33290039 29.49096191 16.50439453 30.2590332 C18.103787 37.67321789 18.93397083 45.14064119 19.625 52.6875 C19.6907019 53.39976746 19.75640381 54.11203491 19.82409668 54.84588623 C21.65153161 75.38794175 21.35795371 95.99758045 21.03710938 116.59893799 C21.00506152 118.67250805 20.97857195 120.74616264 20.953125 122.81982422 C20.55061024 150.09439204 17.26326699 177.61223545 11.55102539 204.26391602 C11.0035087 206.98257774 10.5651946 209.70048782 10.14453125 212.44140625 C8.67003386 221.49610749 6.44792188 230.39565755 4.3125 239.3125 C4.08802185 240.25184387 3.8635437 241.19118774 3.63226318 242.15899658 C0.51571623 255.15618445 -2.72239084 268.05468721 -6.92773438 280.74951172 C-8.01629702 284.04940312 -9.07950223 287.35669871 -10.1401062 290.66564941 C-11.19320161 293.94172699 -12.2580969 297.21388739 -13.32598877 300.48516846 C-13.85198931 302.09957344 -14.37513766 303.71491096 -14.89520264 305.33123779 C-21.36650668 325.38050482 -21.36650668 325.38050482 -27.6875 329.9375 C-32.877815 331.60231802 -37.98784271 333.11924337 -43.28125 331.15234375 C-47.71325637 328.58078782 -50.95539411 325.77074709 -53 321 C-54.12103993 311.68432805 -52.15548242 304.10325421 -48.75567627 295.48495483 C-47.43771494 292.1320361 -46.19790215 288.75067292 -44.9609375 285.3671875 C-44.70758636 284.67584213 -44.45423523 283.98449677 -44.19320679 283.27220154 C-40.29681475 272.4720691 -37.63331429 261.31747939 -34.82275391 250.19628906 C-33.91679769 246.67677012 -32.93713387 243.18447782 -31.92749023 239.69360352 C-13.50671939 175.86076957 -2.77613533 92.99634995 -20.0703125 27.9609375 C-21.78099567 21.19670653 -22.27760693 13.98108284 -19.5 7.5 C-13.8281501 1.8281501 -8.24286863 -1.78379705 0 0 Z " fill="#FFF7F5" transform="translate(866,420)"/>
<path d="M0 0 C6.12354866 2.43342761 12.008581 5.38754599 17.91162109 8.30566406 C19.92180089 9.27880975 21.93222308 10.25145489 23.94287109 11.22363281 C55.99837424 26.86201538 85.47949995 46.6737044 100.91162109 80.30566406 C99.88423828 80.81355469 98.85685547 81.32144531 97.79833984 81.84472656 C96.39842643 82.53968902 94.99869969 83.23502758 93.59912109 83.93066406 C92.87378174 84.29023193 92.14844238 84.6497998 91.40112305 85.02026367 C86.1758425 87.62741581 81.08013022 90.40539452 76.04833984 93.37207031 C73.91162109 94.30566406 73.91162109 94.30566406 70.91162109 93.30566406 C69.1551219 90.92014826 67.52172107 88.53671791 65.91162109 86.05566406 C57.04005273 72.78405995 47.68493616 61.04216921 33.41162109 53.43066406 C32.61973389 53.00068115 31.82784668 52.57069824 31.01196289 52.12768555 C29.40160979 51.25502707 27.78924329 50.38607294 26.17480469 49.52099609 C24.18016606 48.449873 22.19463068 47.36435777 20.21240234 46.27050781 C14.56974184 43.19326743 8.89298478 40.2760556 3.07568359 37.54003906 C2.04854248 37.05656006 1.02140137 36.57308105 -0.03686523 36.07495117 C-2.06906599 35.12425404 -4.1052219 34.18195299 -6.14575195 33.24926758 C-12.55642877 30.25981289 -17.80785035 27.46897786 -22.02587891 21.61816406 C-23.53591228 16.91041297 -23.55120005 13.04345792 -22.08837891 8.30566406 C-16.51512098 -0.18625761 -10.05673502 -3.34362338 0 0 Z " fill="#CD8D7A" transform="translate(297.08837890625,163.6943359375)"/>
<path d="M0 0 C2 2 2 2 2.3828125 5.1484375 C1.91141289 9.89129484 0.37776089 12.65521858 -2.125 16.625 C-2.56440918 17.34502197 -3.00381836 18.06504395 -3.45654297 18.80688477 C-13.50410033 35.08876988 -24.05208916 50.61638507 -36.9765625 64.75390625 C-38.57411928 66.52725596 -40.08383492 68.31683982 -41.5625 70.1875 C-46.909133 76.35669193 -53.52162843 81.32215186 -60 86.25 C-60.73420166 86.80937256 -61.46840332 87.36874512 -62.22485352 87.94506836 C-69.64543874 93.55482411 -77.27691362 98.81841155 -85 104 C-86.44534552 104.97651363 -87.89065729 105.95307722 -89.3359375 106.9296875 C-98.08431916 112.81816876 -106.92150549 118.54056079 -115.89575195 124.07983398 C-116.65073975 124.54977783 -117.40572754 125.01972168 -118.18359375 125.50390625 C-118.84931396 125.91455322 -119.51503418 126.3252002 -120.20092773 126.74829102 C-122.03927755 127.94418646 -122.03927755 127.94418646 -123.50805664 129.53979492 C-126.16767552 132.14283543 -129.62204592 133.28942555 -133 134.75 C-133.72445313 135.07871094 -134.44890625 135.40742188 -135.1953125 135.74609375 C-140.63106045 138.12297985 -140.63106045 138.12297985 -144 137 C-145.75 134.625 -145.75 134.625 -147 132 C-145.55669058 127.67007175 -142.26719508 126.50147506 -138.5 124.3125 C-136.84624083 123.32528389 -135.1939793 122.33555603 -133.54296875 121.34375 C-132.64884277 120.8075 -131.7547168 120.27125 -130.83349609 119.71875 C-80.44913733 89.15646448 -40.97897144 58.62020939 -11.046875 7.67578125 C-10.51578125 6.77214844 -9.9846875 5.86851563 -9.4375 4.9375 C-9.00308594 4.18339844 -8.56867188 3.42929688 -8.12109375 2.65234375 C-5.99830592 -0.47636444 -3.53478375 -0.26510878 0 0 Z " fill="#6D8F66" transform="translate(540,105)"/>
<path d="M0 0 C5.19016596 3.21790289 9.67683479 7.85520611 11.125 13.9375 C11.97848191 20.00540562 11.16046719 24.12378664 7.6171875 29.1484375 C3.68307496 33.86525306 -0.6626589 37.32749366 -6.87109375 38.2265625 C-13.27306972 38.6481831 -17.74998485 36.6937862 -22.875 32.9375 C-27.20283323 28.49869669 -29.15792553 23.8741225 -29.375 17.6875 C-29.24822867 11.42499616 -27.09887228 7.47181278 -22.875 2.9375 C-16.92525245 -2.6640435 -7.42257359 -2.63913728 0 0 Z " fill="#FFF9F9" transform="translate(820.875,763.0625)"/>
</svg>
